<?xml version="1.0" encoding="UTF-8" standalone="no"?>
<!DOCTYPE svg PUBLIC "-//W3C//DTD SVG 1.1//EN"
 "http://www.w3.org/Graphics/SVG/1.1/DTD/svg11.dtd">
<!-- Generated by graphviz version 2.43.0 (0)
 -->
<!-- Title: %3 Pages: 1 -->
<svg width="1660pt" height="836pt"
 viewBox="0.00 0.00 1660.00 836.00" xmlns="http://www.w3.org/2000/svg" xmlns:xlink="http://www.w3.org/1999/xlink">
<g id="graph0" class="graph" transform="scale(1 1) rotate(0) translate(4 832)">
<title>%3</title>
<polygon fill="white" stroke="transparent" points="-4,4 -4,-832 1656,-832 1656,4 -4,4"/>
<!-- 0 -->
<g id="node1" class="node">
<title>0</title>
<polygon fill="none" stroke="black" points="196,-612 0,-612 0,-576 196,-576 196,-612"/>
<text text-anchor="middle" x="98" y="-590.3" font-family="Times,serif" font-size="14.00">chunkedge_advancement</text>
</g>
<!-- 9 -->
<g id="node2" class="node">
<title>9</title>
<polygon fill="none" stroke="black" points="952,-540 806,-540 806,-504 952,-504 952,-540"/>
<text text-anchor="middle" x="879" y="-518.3" font-family="Times,serif" font-size="14.00">chunkedge_server</text>
</g>
<!-- 0&#45;&gt;9 -->
<g id="edge1" class="edge">
<title>0&#45;&gt;9</title>
<path fill="none" stroke="black" d="M196.21,-577.09C199.17,-576.71 202.1,-576.34 205,-576 416.93,-550.87 667.82,-534.7 795.42,-527.44"/>
<polygon fill="black" stroke="black" points="795.72,-530.93 805.51,-526.87 795.33,-523.94 795.72,-530.93"/>
</g>
<!-- 10 -->
<g id="node11" class="node">
<title>10</title>
<polygon fill="none" stroke="black" points="866.5,-468 723.5,-468 723.5,-432 866.5,-432 866.5,-468"/>
<text text-anchor="middle" x="795" y="-446.3" font-family="Times,serif" font-size="14.00">chunkedge_entity</text>
</g>
<!-- 9&#45;&gt;10 -->
<g id="edge8" class="edge">
<title>9&#45;&gt;10</title>
<path fill="none" stroke="black" d="M858.24,-503.7C847.76,-494.97 834.89,-484.24 823.5,-474.75"/>
<polygon fill="black" stroke="black" points="825.45,-471.82 815.53,-468.1 820.97,-477.19 825.45,-471.82"/>
</g>
<!-- 14 -->
<g id="node12" class="node">
<title>14</title>
<polygon fill="none" stroke="black" points="1043,-468 885,-468 885,-432 1043,-432 1043,-468"/>
<text text-anchor="middle" x="964" y="-446.3" font-family="Times,serif" font-size="14.00">chunkedge_registry</text>
</g>
<!-- 9&#45;&gt;14 -->
<g id="edge9" class="edge">
<title>9&#45;&gt;14</title>
<path fill="none" stroke="black" d="M900.01,-503.7C910.72,-494.88 923.89,-484.03 935.5,-474.47"/>
<polygon fill="black" stroke="black" points="937.74,-477.16 943.23,-468.1 933.29,-471.76 937.74,-477.16"/>
</g>
<!-- 1 -->
<g id="node3" class="node">
<title>1</title>
<polygon fill="none" stroke="black" points="790,-180 644,-180 644,-144 790,-144 790,-180"/>
<text text-anchor="middle" x="717" y="-158.3" font-family="Times,serif" font-size="14.00">chunkedge_binary</text>
</g>
<!-- 2 -->
<g id="node4" class="node">
<title>2</title>
<polygon fill="none" stroke="black" points="719.5,-108 546.5,-108 546.5,-72 719.5,-72 719.5,-108"/>
<text text-anchor="middle" x="633" y="-86.3" font-family="Times,serif" font-size="14.00">chunkedge_generated</text>
</g>
<!-- 1&#45;&gt;2 -->
<g id="edge2" class="edge">
<title>1&#45;&gt;2</title>
<path fill="none" stroke="black" d="M696.24,-143.7C685.76,-134.97 672.89,-124.24 661.5,-114.75"/>
<polygon fill="black" stroke="black" points="663.45,-111.82 653.53,-108.1 658.97,-117.19 663.45,-111.82"/>
</g>
<!-- 8 -->
<g id="node5" class="node">
<title>8</title>
<polygon fill="none" stroke="black" points="866.5,-108 737.5,-108 737.5,-72 866.5,-72 866.5,-108"/>
<text text-anchor="middle" x="802" y="-86.3" font-family="Times,serif" font-size="14.00">chunkedge_text</text>
</g>
<!-- 1&#45;&gt;8 -->
<g id="edge3" class="edge">
<title>1&#45;&gt;8</title>
<path fill="none" stroke="black" d="M738.01,-143.7C748.72,-134.88 761.89,-124.03 773.5,-114.47"/>
<polygon fill="black" stroke="black" points="775.74,-117.16 781.23,-108.1 771.29,-111.76 775.74,-117.16"/>
</g>
<!-- 3 -->
<g id="node6" class="node">
<title>3</title>
<polygon fill="none" stroke="black" points="789.5,-36 652.5,-36 652.5,0 789.5,0 789.5,-36"/>
<text text-anchor="middle" x="721" y="-14.3" font-family="Times,serif" font-size="14.00">chunkedge_ident</text>
</g>
<!-- 2&#45;&gt;3 -->
<g id="edge4" class="edge">
<title>2&#45;&gt;3</title>
<path fill="none" stroke="black" d="M654.75,-71.7C665.84,-62.88 679.47,-52.03 691.49,-42.47"/>
<polygon fill="black" stroke="black" points="693.85,-45.07 699.5,-36.1 689.49,-39.59 693.85,-45.07"/>
</g>
<!-- 4 -->
<g id="node7" class="node">
<title>4</title>
<polygon fill="none" stroke="black" points="634.5,-36 497.5,-36 497.5,0 634.5,0 634.5,-36"/>
<text text-anchor="middle" x="566" y="-14.3" font-family="Times,serif" font-size="14.00">chunkedge_math</text>
</g>
<!-- 2&#45;&gt;4 -->
<g id="edge5" class="edge">
<title>2&#45;&gt;4</title>
<path fill="none" stroke="black" d="M616.44,-71.7C608.32,-63.22 598.41,-52.86 589.53,-43.58"/>
<polygon fill="black" stroke="black" points="591.81,-40.91 582.37,-36.1 586.76,-45.75 591.81,-40.91"/>
</g>
<!-- 8&#45;&gt;3 -->
<g id="edge6" class="edge">
<title>8&#45;&gt;3</title>
<path fill="none" stroke="black" d="M781.98,-71.7C771.87,-62.97 759.46,-52.24 748.48,-42.75"/>
<polygon fill="black" stroke="black" points="750.65,-39.99 740.79,-36.1 746.07,-45.29 750.65,-39.99"/>
</g>
<!-- 6 -->
<g id="node9" class="node">
<title>6</title>
<polygon fill="none" stroke="black" points="932.5,-36 807.5,-36 807.5,0 932.5,0 932.5,-36"/>
<text text-anchor="middle" x="870" y="-14.3" font-family="Times,serif" font-size="14.00">chunkedge_nbt</text>
</g>
<!-- 8&#45;&gt;6 -->
<g id="edge7" class="edge">
<title>8&#45;&gt;6</title>
<path fill="none" stroke="black" d="M818.81,-71.7C827.13,-63.14 837.31,-52.66 846.39,-43.3"/>
<polygon fill="black" stroke="black" points="848.93,-45.72 853.38,-36.1 843.91,-40.84 848.93,-45.72"/>
</g>
<!-- 5 -->
<g id="node8" class="node">
<title>5</title>
<polygon fill="none" stroke="black" points="1005.5,-828 830.5,-828 830.5,-792 1005.5,-792 1005.5,-828"/>
<text text-anchor="middle" x="918" y="-806.3" font-family="Times,serif" font-size="14.00">chunkedge_build_utils</text>
</g>
<!-- 7 -->
<g id="node10" class="node">
<title>7</title>
<polygon fill="none" stroke="black" points="1118.5,-828 1023.5,-828 1023.5,-792 1118.5,-792 1118.5,-828"/>
<text text-anchor="middle" x="1071" y="-806.3" font-family="Times,serif" font-size="14.00">java_string</text>
</g>
<!-- 13 -->
<g id="node13" class="node">
<title>13</title>
<polygon fill="none" stroke="black" points="985.5,-396 772.5,-396 772.5,-360 985.5,-360 985.5,-396"/>
<text text-anchor="middle" x="879" y="-374.3" font-family="Times,serif" font-size="14.00">chunkedge_server_common</text>
</g>
<!-- 10&#45;&gt;13 -->
<g id="edge10" class="edge">
<title>10&#45;&gt;13</title>
<path fill="none" stroke="black" d="M815.76,-431.7C826.24,-422.97 839.11,-412.24 850.5,-402.75"/>
<polygon fill="black" stroke="black" points="853.03,-405.19 858.47,-396.1 848.55,-399.82 853.03,-405.19"/>
</g>
<!-- 14&#45;&gt;13 -->
<g id="edge14" class="edge">
<title>14&#45;&gt;13</title>
<path fill="none" stroke="black" d="M942.99,-431.7C932.28,-422.88 919.11,-412.03 907.5,-402.47"/>
<polygon fill="black" stroke="black" points="909.71,-399.76 899.77,-396.1 905.26,-405.16 909.71,-399.76"/>
</g>
<!-- 11 -->
<g id="node14" class="node">
<title>11</title>
<polygon fill="none" stroke="black" points="796.5,-324 637.5,-324 637.5,-288 796.5,-288 796.5,-324"/>
<text text-anchor="middle" x="717" y="-302.3" font-family="Times,serif" font-size="14.00">chunkedge_protocol</text>
</g>
<!-- 13&#45;&gt;11 -->
<g id="edge13" class="edge">
<title>13&#45;&gt;11</title>
<path fill="none" stroke="black" d="M839.37,-359.88C817.22,-350.31 789.44,-338.3 765.94,-328.15"/>
<polygon fill="black" stroke="black" points="767.07,-324.82 756.5,-324.07 764.29,-331.25 767.07,-324.82"/>
</g>
<!-- 12 -->
<g id="node15" class="node">
<title>12</title>
<polygon fill="none" stroke="black" points="783.5,-252 650.5,-252 650.5,-216 783.5,-216 783.5,-252"/>
<text text-anchor="middle" x="717" y="-230.3" font-family="Times,serif" font-size="14.00">chunkedge_item</text>
</g>
<!-- 11&#45;&gt;12 -->
<g id="edge11" class="edge">
<title>11&#45;&gt;12</title>
<path fill="none" stroke="black" d="M717,-287.7C717,-279.98 717,-270.71 717,-262.11"/>
<polygon fill="black" stroke="black" points="720.5,-262.1 717,-252.1 713.5,-262.1 720.5,-262.1"/>
</g>
<!-- 12&#45;&gt;1 -->
<g id="edge12" class="edge">
<title>12&#45;&gt;1</title>
<path fill="none" stroke="black" d="M717,-215.7C717,-207.98 717,-198.71 717,-190.11"/>
<polygon fill="black" stroke="black" points="720.5,-190.1 717,-180.1 713.5,-190.1 720.5,-190.1"/>
</g>
<!-- 15 -->
<g id="node16" class="node">
<title>15</title>
<polygon fill="none" stroke="black" points="349.5,-612 214.5,-612 214.5,-576 349.5,-576 349.5,-612"/>
<text text-anchor="middle" x="282" y="-590.3" font-family="Times,serif" font-size="14.00">chunkedge_anvil</text>
</g>
<!-- 15&#45;&gt;9 -->
<g id="edge15" class="edge">
<title>15&#45;&gt;9</title>
<path fill="none" stroke="black" stroke-dasharray="1,5" d="M349.52,-577.63C352.72,-577.05 355.89,-576.5 359,-576 512.26,-551.36 692.87,-535.98 795.86,-528.49"/>
<polygon fill="black" stroke="black" points="796.16,-531.98 805.88,-527.77 795.66,-525 796.16,-531.98"/>
</g>
<!-- 16 -->
<g id="node17" class="node">
<title>16</title>
<polygon fill="none" stroke="black" points="532,-612 368,-612 368,-576 532,-576 532,-612"/>
<text text-anchor="middle" x="450" y="-590.3" font-family="Times,serif" font-size="14.00">chunkedge_boss_bar</text>
</g>
<!-- 16&#45;&gt;9 -->
<g id="edge16" class="edge">
<title>16&#45;&gt;9</title>
<path fill="none" stroke="black" d="M532.32,-577.51C535.25,-576.99 538.15,-576.49 541,-576 627.59,-561.13 726.95,-545.75 795.42,-535.41"/>
<polygon fill="black" stroke="black" points="796.35,-538.81 805.71,-533.86 795.3,-531.89 796.35,-538.81"/>
</g>
<!-- 17 -->
<g id="node18" class="node">
<title>17</title>
<polygon fill="none" stroke="black" points="720,-612 550,-612 550,-576 720,-576 720,-612"/>
<text text-anchor="middle" x="635" y="-590.3" font-family="Times,serif" font-size="14.00">chunkedge_command</text>
</g>
<!-- 17&#45;&gt;9 -->
<g id="edge17" class="edge">
<title>17&#45;&gt;9</title>
<path fill="none" stroke="black" d="M694.38,-575.97C729.06,-566.01 773.01,-553.41 809.33,-542.99"/>
<polygon fill="black" stroke="black" points="810.71,-546.23 819.36,-540.11 808.78,-539.5 810.71,-546.23"/>
</g>
<!-- 18 -->
<g id="node19" class="node">
<title>18</title>
<polygon fill="none" stroke="black" points="692.5,-684 515.5,-684 515.5,-648 692.5,-648 692.5,-684"/>
<text text-anchor="middle" x="604" y="-662.3" font-family="Times,serif" font-size="14.00">chunkedge_equipment</text>
</g>
<!-- 19 -->
<g id="node20" class="node">
<title>19</title>
<polygon fill="none" stroke="black" points="907.5,-612 738.5,-612 738.5,-576 907.5,-576 907.5,-612"/>
<text text-anchor="middle" x="823" y="-590.3" font-family="Times,serif" font-size="14.00">chunkedge_inventory</text>
</g>
<!-- 18&#45;&gt;19 -->
<g id="edge18" class="edge">
<title>18&#45;&gt;19</title>
<path fill="none" stroke="black" d="M657.29,-647.97C688.16,-638.1 727.2,-625.62 759.63,-615.25"/>
<polygon fill="black" stroke="black" points="761.01,-618.49 769.47,-612.11 758.88,-611.82 761.01,-618.49"/>
</g>
<!-- 19&#45;&gt;9 -->
<g id="edge19" class="edge">
<title>19&#45;&gt;9</title>
<path fill="none" stroke="black" d="M836.84,-575.7C843.49,-567.39 851.58,-557.28 858.89,-548.14"/>
<polygon fill="black" stroke="black" points="861.8,-550.1 865.32,-540.1 856.34,-545.73 861.8,-550.1"/>
</g>
<!-- 20 -->
<g id="node21" class="node">
<title>20</title>
<polygon fill="none" stroke="black" points="1094.5,-612 963.5,-612 963.5,-576 1094.5,-576 1094.5,-612"/>
<text text-anchor="middle" x="1029" y="-590.3" font-family="Times,serif" font-size="14.00">chunkedge_lang</text>
</g>
<!-- 21 -->
<g id="node22" class="node">
<title>21</title>
<polygon fill="none" stroke="black" points="869.5,-684 710.5,-684 710.5,-648 869.5,-648 869.5,-684"/>
<text text-anchor="middle" x="790" y="-662.3" font-family="Times,serif" font-size="14.00">chunkedge_network</text>
</g>
<!-- 21&#45;&gt;9 -->
<g id="edge20" class="edge">
<title>21&#45;&gt;9</title>
<path fill="none" stroke="black" d="M869.27,-647.86C887.61,-640.02 904.97,-628.61 916,-612 929.25,-592.06 916.13,-566.6 901.98,-548.03"/>
<polygon fill="black" stroke="black" points="904.51,-545.59 895.49,-540.02 899.07,-550 904.51,-545.59"/>
</g>
<!-- 21&#45;&gt;20 -->
<g id="edge21" class="edge">
<title>21&#45;&gt;20</title>
<path fill="none" stroke="black" d="M848.16,-647.97C882.13,-638.01 925.18,-625.41 960.76,-614.99"/>
<polygon fill="black" stroke="black" points="961.97,-618.28 970.58,-612.11 960,-611.56 961.97,-618.28"/>
</g>
<!-- 22 -->
<g id="node23" class="node">
<title>22</title>
<polygon fill="none" stroke="black" points="1062.5,-684 887.5,-684 887.5,-648 1062.5,-648 1062.5,-684"/>
<text text-anchor="middle" x="975" y="-662.3" font-family="Times,serif" font-size="14.00">chunkedge_player_list</text>
</g>
<!-- 22&#45;&gt;9 -->
<g id="edge22" class="edge">
<title>22&#45;&gt;9</title>
<path fill="none" stroke="black" d="M1055.83,-647.98C1074.34,-640.14 1091.84,-628.7 1103,-612 1111.89,-598.7 1112.93,-588.55 1103,-576 1085.4,-553.75 1018.43,-539.88 962.26,-531.94"/>
<polygon fill="black" stroke="black" points="962.65,-528.46 952.27,-530.57 961.7,-535.39 962.65,-528.46"/>
</g>
<!-- 23 -->
<g id="node24" class="node">
<title>23</title>
<polygon fill="none" stroke="black" points="1261,-684 1081,-684 1081,-648 1261,-648 1261,-684"/>
<text text-anchor="middle" x="1171" y="-662.3" font-family="Times,serif" font-size="14.00">chunkedge_scoreboard</text>
</g>
<!-- 23&#45;&gt;9 -->
<g id="edge23" class="edge">
<title>23&#45;&gt;9</title>
<path fill="none" stroke="black" d="M1166.06,-647.69C1159.32,-627.29 1145.22,-593.93 1121,-576 1075.4,-542.24 1012.54,-529.2 962.31,-524.49"/>
<polygon fill="black" stroke="black" points="962.38,-520.98 952.12,-523.63 961.79,-527.96 962.38,-520.98"/>
</g>
<!-- 24 -->
<g id="node25" class="node">
<title>24</title>
<polygon fill="none" stroke="black" points="1285.5,-828 1136.5,-828 1136.5,-792 1285.5,-792 1285.5,-828"/>
<text text-anchor="middle" x="1211" y="-806.3" font-family="Times,serif" font-size="14.00">chunkedge_spatial</text>
</g>
<!-- 25 -->
<g id="node26" class="node">
<title>25</title>
<polygon fill="none" stroke="black" points="1438.5,-684 1279.5,-684 1279.5,-648 1438.5,-648 1438.5,-684"/>
<text text-anchor="middle" x="1359" y="-662.3" font-family="Times,serif" font-size="14.00">chunkedge_weather</text>
</g>
<!-- 25&#45;&gt;9 -->
<g id="edge24" class="edge">
<title>25&#45;&gt;9</title>
<path fill="none" stroke="black" d="M1325.07,-647.93C1284.39,-628.08 1213.71,-595.56 1150,-576 1088.2,-557.03 1016.3,-543.34 962.1,-534.63"/>
<polygon fill="black" stroke="black" points="962.62,-531.16 952.2,-533.06 961.52,-538.08 962.62,-531.16"/>
</g>
<!-- 26 -->
<g id="node27" class="node">
<title>26</title>
<polygon fill="none" stroke="black" points="1652,-684 1456,-684 1456,-648 1652,-648 1652,-684"/>
<text text-anchor="middle" x="1554" y="-662.3" font-family="Times,serif" font-size="14.00">chunkedge_world_border</text>
</g>
<!-- 26&#45;&gt;9 -->
<g id="edge25" class="edge">
<title>26&#45;&gt;9</title>
<path fill="none" stroke="black" d="M1495.23,-647.92C1427.23,-628.59 1311.72,-597.06 1211,-576 1126.9,-558.42 1029.76,-543.53 962.37,-534.06"/>
<polygon fill="black" stroke="black" points="962.62,-530.56 952.23,-532.64 961.65,-537.49 962.62,-530.56"/>
</g>
<!-- 27 -->
<g id="node28" class="node">
<title>27</title>
<polygon fill="none" stroke="black" points="695.5,-828 568.5,-828 568.5,-792 695.5,-792 695.5,-828"/>
<text text-anchor="middle" x="632" y="-806.3" font-family="Times,serif" font-size="14.00">dump_schedule</text>
</g>
<!-- 28 -->
<g id="node29" class="node">
<title>28</title>
<polygon fill="none" stroke="black" points="744,-756 650,-756 650,-720 744,-720 744,-756"/>
<text text-anchor="middle" x="697" y="-734.3" font-family="Times,serif" font-size="14.00">chunkedge</text>
</g>
<!-- 27&#45;&gt;28 -->
<g id="edge26" class="edge">
<title>27&#45;&gt;28</title>
<path fill="none" stroke="black" d="M648.07,-791.7C655.94,-783.22 665.56,-772.86 674.17,-763.58"/>
<polygon fill="black" stroke="black" points="676.88,-765.81 681.12,-756.1 671.75,-761.05 676.88,-765.81"/>
</g>
<!-- 28&#45;&gt;0 -->
<g id="edge27" class="edge">
<title>28&#45;&gt;0</title>
<path fill="none" stroke="black" stroke-dasharray="1,5" d="M649.86,-731.22C587.57,-723.1 474.68,-706.74 380,-684 300.49,-664.9 210.75,-635.12 154.29,-615.33"/>
<polygon fill="black" stroke="black" points="155.43,-612.02 144.83,-612.01 153.1,-618.63 155.43,-612.02"/>
</g>
<!-- 28&#45;&gt;15 -->
<g id="edge28" class="edge">
<title>28&#45;&gt;15</title>
<path fill="none" stroke="black" stroke-dasharray="1,5" d="M649.67,-729.36C602.35,-720.98 527.91,-705.76 466,-684 414,-665.72 357.36,-636.86 320.85,-616.98"/>
<polygon fill="black" stroke="black" points="322.47,-613.88 312.02,-612.14 319.11,-620.01 322.47,-613.88"/>
</g>
<!-- 28&#45;&gt;16 -->
<g id="edge29" class="edge">
<title>28&#45;&gt;16</title>
<path fill="none" stroke="black" stroke-dasharray="1,5" d="M649.9,-735.25C605.79,-731.35 540.21,-719.44 496,-684 476.35,-668.25 464.22,-641.85 457.38,-621.89"/>
<polygon fill="black" stroke="black" points="460.64,-620.59 454.28,-612.12 453.97,-622.71 460.64,-620.59"/>
</g>
<!-- 28&#45;&gt;17 -->
<g id="edge30" class="edge">
<title>28&#45;&gt;17</title>
<path fill="none" stroke="black" stroke-dasharray="1,5" d="M649.65,-730.46C598.92,-722.37 523.34,-706.81 506,-684 496.32,-671.26 497.09,-661.29 506,-648 515.27,-634.18 528.86,-623.95 543.78,-616.4"/>
<polygon fill="black" stroke="black" points="545.61,-619.41 553.22,-612.03 542.67,-613.05 545.61,-619.41"/>
</g>
<!-- 28&#45;&gt;18 -->
<g id="edge31" class="edge">
<title>28&#45;&gt;18</title>
<path fill="none" stroke="black" stroke-dasharray="1,5" d="M674.01,-719.7C662.19,-710.8 647.61,-699.82 634.82,-690.2"/>
<polygon fill="black" stroke="black" points="636.82,-687.32 626.72,-684.1 632.61,-692.91 636.82,-687.32"/>
</g>
<!-- 28&#45;&gt;21 -->
<g id="edge32" class="edge">
<title>28&#45;&gt;21</title>
<path fill="none" stroke="black" stroke-dasharray="1,5" d="M719.99,-719.7C731.81,-710.8 746.39,-699.82 759.18,-690.2"/>
<polygon fill="black" stroke="black" points="761.39,-692.91 767.28,-684.1 757.18,-687.32 761.39,-692.91"/>
</g>
<!-- 28&#45;&gt;22 -->
<g id="edge33" class="edge">
<title>28&#45;&gt;22</title>
<path fill="none" stroke="black" stroke-dasharray="1,5" d="M744.16,-725.13C786.04,-714.58 848.06,-698.96 897.27,-686.57"/>
<polygon fill="black" stroke="black" points="898.41,-689.89 907.25,-684.06 896.7,-683.11 898.41,-689.89"/>
</g>
<!-- 28&#45;&gt;23 -->
<g id="edge34" class="edge">
<title>28&#45;&gt;23</title>
<path fill="none" stroke="black" stroke-dasharray="1,5" d="M744.29,-730.72C813.45,-721.45 946.47,-703.27 1070.73,-684.02"/>
<polygon fill="black" stroke="black" points="1071.46,-687.45 1080.8,-682.45 1070.38,-680.53 1071.46,-687.45"/>
</g>
<!-- 28&#45;&gt;25 -->
<g id="edge35" class="edge">
<title>28&#45;&gt;25</title>
<path fill="none" stroke="black" stroke-dasharray="1,5" d="M744.35,-734.17C841.01,-728.07 1068.16,-712 1269.32,-684.01"/>
<polygon fill="black" stroke="black" points="1270.07,-687.44 1279.49,-682.58 1269.1,-680.51 1270.07,-687.44"/>
</g>
<!-- 28&#45;&gt;26 -->
<g id="edge36" class="edge">
<title>28&#45;&gt;26</title>
<path fill="none" stroke="black" stroke-dasharray="1,5" d="M744.08,-735.1C861.04,-730.07 1174.34,-714.72 1445.76,-684.08"/>
<polygon fill="black" stroke="black" points="1446.26,-687.55 1455.8,-682.94 1445.47,-680.6 1446.26,-687.55"/>
</g>
<!-- 29 -->
<g id="node30" class="node">
<title>29</title>
<polygon fill="none" stroke="black" points="661.5,-396 524.5,-396 524.5,-360 661.5,-360 661.5,-396"/>
<text text-anchor="middle" x="593" y="-374.3" font-family="Times,serif" font-size="14.00">packet_inspector</text>
</g>
<!-- 29&#45;&gt;11 -->
<g id="edge37" class="edge">
<title>29&#45;&gt;11</title>
<path fill="none" stroke="black" d="M623.33,-359.88C639.7,-350.64 660.08,-339.13 677.65,-329.21"/>
<polygon fill="black" stroke="black" points="679.56,-332.15 686.55,-324.19 676.12,-326.06 679.56,-332.15"/>
</g>
<!-- 30 -->
<g id="node31" class="node">
<title>30</title>
<polygon fill="none" stroke="black" points="812,-828 714,-828 714,-792 812,-792 812,-828"/>
<text text-anchor="middle" x="763" y="-806.3" font-family="Times,serif" font-size="14.00">playground</text>
</g>
<!-- 30&#45;&gt;28 -->
<g id="edge38" class="edge">
<title>30&#45;&gt;28</title>
<path fill="none" stroke="black" d="M746.69,-791.7C738.69,-783.22 728.93,-772.86 720.18,-763.58"/>
<polygon fill="black" stroke="black" points="722.53,-760.98 713.13,-756.1 717.44,-765.78 722.53,-760.98"/>
</g>
<!-- 31 -->
<g id="node32" class="node">
<title>31</title>
<polygon fill="none" stroke="black" points="754.5,-396 679.5,-396 679.5,-360 754.5,-360 754.5,-396"/>
<text text-anchor="middle" x="717" y="-374.3" font-family="Times,serif" font-size="14.00">stresser</text>
</g>
<!-- 31&#45;&gt;11 -->
<g id="edge39" class="edge">
<title>31&#45;&gt;11</title>
<path fill="none" stroke="black" d="M717,-359.7C717,-351.98 717,-342.71 717,-334.11"/>
<polygon fill="black" stroke="black" points="720.5,-334.1 717,-324.1 713.5,-334.1 720.5,-334.1"/>
</g>
</g>
</svg>
