<?xml version="1.0" encoding="UTF-8" standalone="no"?>
<!DOCTYPE svg PUBLIC "-//W3C//DTD SVG 1.1//EN"
 "http://www.w3.org/Graphics/SVG/1.1/DTD/svg11.dtd">
<!-- Generated by graphviz version 2.43.0 (0)
 -->
<!-- Title: %3 Pages: 1 -->
<svg width="1465pt" height="836pt"
 viewBox="0.00 0.00 1465.00 836.00" xmlns="http://www.w3.org/2000/svg" xmlns:xlink="http://www.w3.org/1999/xlink">
<g id="graph0" class="graph" transform="scale(1 1) rotate(0) translate(4 832)">
<title>%3</title>
<polygon fill="white" stroke="transparent" points="-4,4 -4,-832 1461,-832 1461,4 -4,4"/>
<!-- 0 -->
<g id="node1" class="node">
<title>0</title>
<polygon fill="none" stroke="black" points="469,-828 374,-828 374,-792 469,-792 469,-828"/>
<text text-anchor="middle" x="421.5" y="-806.3" font-family="Times,serif" font-size="14.00">java_string</text>
</g>
<!-- 1 -->
<g id="node2" class="node">
<title>1</title>
<polygon fill="none" stroke="black" points="173,-612 0,-612 0,-576 173,-576 173,-612"/>
<text text-anchor="middle" x="86.5" y="-590.3" font-family="Times,serif" font-size="14.00">valence_advancement</text>
</g>
<!-- 9 -->
<g id="node3" class="node">
<title>9</title>
<polygon fill="none" stroke="black" points="828,-540 705,-540 705,-504 828,-504 828,-540"/>
<text text-anchor="middle" x="766.5" y="-518.3" font-family="Times,serif" font-size="14.00">valence_server</text>
</g>
<!-- 1&#45;&gt;9 -->
<g id="edge1" class="edge">
<title>1&#45;&gt;9</title>
<path fill="none" stroke="black" d="M173.05,-577.32C176.24,-576.86 179.4,-576.41 182.5,-576 366.46,-551.41 584.58,-534.96 694.92,-527.53"/>
<polygon fill="black" stroke="black" points="695.19,-531.02 704.93,-526.86 694.72,-524.04 695.19,-531.02"/>
</g>
<!-- 10 -->
<g id="node11" class="node">
<title>10</title>
<polygon fill="none" stroke="black" points="754,-468 635,-468 635,-432 754,-432 754,-468"/>
<text text-anchor="middle" x="694.5" y="-446.3" font-family="Times,serif" font-size="14.00">valence_entity</text>
</g>
<!-- 9&#45;&gt;10 -->
<g id="edge8" class="edge">
<title>9&#45;&gt;10</title>
<path fill="none" stroke="black" d="M748.7,-503.7C739.9,-495.14 729.12,-484.66 719.5,-475.3"/>
<polygon fill="black" stroke="black" points="721.7,-472.57 712.09,-468.1 716.82,-477.58 721.7,-472.57"/>
</g>
<!-- 14 -->
<g id="node12" class="node">
<title>14</title>
<polygon fill="none" stroke="black" points="906.5,-468 772.5,-468 772.5,-432 906.5,-432 906.5,-468"/>
<text text-anchor="middle" x="839.5" y="-446.3" font-family="Times,serif" font-size="14.00">valence_registry</text>
</g>
<!-- 9&#45;&gt;14 -->
<g id="edge9" class="edge">
<title>9&#45;&gt;14</title>
<path fill="none" stroke="black" d="M784.54,-503.7C793.56,-495.05 804.62,-484.45 814.44,-475.03"/>
<polygon fill="black" stroke="black" points="816.87,-477.55 821.66,-468.1 812.02,-472.5 816.87,-477.55"/>
</g>
<!-- 2 -->
<g id="node4" class="node">
<title>2</title>
<polygon fill="none" stroke="black" points="677,-180 554,-180 554,-144 677,-144 677,-180"/>
<text text-anchor="middle" x="615.5" y="-158.3" font-family="Times,serif" font-size="14.00">valence_binary</text>
</g>
<!-- 3 -->
<g id="node5" class="node">
<title>3</title>
<polygon fill="none" stroke="black" points="617.5,-108 467.5,-108 467.5,-72 617.5,-72 617.5,-108"/>
<text text-anchor="middle" x="542.5" y="-86.3" font-family="Times,serif" font-size="14.00">valence_generated</text>
</g>
<!-- 2&#45;&gt;3 -->
<g id="edge2" class="edge">
<title>2&#45;&gt;3</title>
<path fill="none" stroke="black" d="M597.46,-143.7C588.44,-135.05 577.38,-124.45 567.56,-115.03"/>
<polygon fill="black" stroke="black" points="569.98,-112.5 560.34,-108.1 565.13,-117.55 569.98,-112.5"/>
</g>
<!-- 8 -->
<g id="node6" class="node">
<title>8</title>
<polygon fill="none" stroke="black" points="741.5,-108 635.5,-108 635.5,-72 741.5,-72 741.5,-108"/>
<text text-anchor="middle" x="688.5" y="-86.3" font-family="Times,serif" font-size="14.00">valence_text</text>
</g>
<!-- 2&#45;&gt;8 -->
<g id="edge3" class="edge">
<title>2&#45;&gt;8</title>
<path fill="none" stroke="black" d="M633.54,-143.7C642.56,-135.05 653.62,-124.45 663.44,-115.03"/>
<polygon fill="black" stroke="black" points="665.87,-117.55 670.66,-108.1 661.02,-112.5 665.87,-117.55"/>
</g>
<!-- 4 -->
<g id="node7" class="node">
<title>4</title>
<polygon fill="none" stroke="black" points="675.5,-36 561.5,-36 561.5,0 675.5,0 675.5,-36"/>
<text text-anchor="middle" x="618.5" y="-14.3" font-family="Times,serif" font-size="14.00">valence_ident</text>
</g>
<!-- 3&#45;&gt;4 -->
<g id="edge4" class="edge">
<title>3&#45;&gt;4</title>
<path fill="none" stroke="black" d="M561.29,-71.7C570.67,-63.05 582.18,-52.45 592.41,-43.03"/>
<polygon fill="black" stroke="black" points="594.95,-45.45 599.93,-36.1 590.2,-40.3 594.95,-45.45"/>
</g>
<!-- 5 -->
<g id="node8" class="node">
<title>5</title>
<polygon fill="none" stroke="black" points="543.5,-36 429.5,-36 429.5,0 543.5,0 543.5,-36"/>
<text text-anchor="middle" x="486.5" y="-14.3" font-family="Times,serif" font-size="14.00">valence_math</text>
</g>
<!-- 3&#45;&gt;5 -->
<g id="edge5" class="edge">
<title>3&#45;&gt;5</title>
<path fill="none" stroke="black" d="M528.66,-71.7C522.01,-63.39 513.92,-53.28 506.61,-44.14"/>
<polygon fill="black" stroke="black" points="509.16,-41.73 500.18,-36.1 503.7,-46.1 509.16,-41.73"/>
</g>
<!-- 8&#45;&gt;4 -->
<g id="edge6" class="edge">
<title>8&#45;&gt;4</title>
<path fill="none" stroke="black" d="M671.2,-71.7C662.64,-63.14 652.16,-52.66 642.8,-43.3"/>
<polygon fill="black" stroke="black" points="645.15,-40.7 635.6,-36.1 640.2,-45.65 645.15,-40.7"/>
</g>
<!-- 7 -->
<g id="node10" class="node">
<title>7</title>
<polygon fill="none" stroke="black" points="795,-36 694,-36 694,0 795,0 795,-36"/>
<text text-anchor="middle" x="744.5" y="-14.3" font-family="Times,serif" font-size="14.00">valence_nbt</text>
</g>
<!-- 8&#45;&gt;7 -->
<g id="edge7" class="edge">
<title>8&#45;&gt;7</title>
<path fill="none" stroke="black" d="M702.34,-71.7C708.99,-63.39 717.08,-53.28 724.39,-44.14"/>
<polygon fill="black" stroke="black" points="727.3,-46.1 730.82,-36.1 721.84,-41.73 727.3,-46.1"/>
</g>
<!-- 6 -->
<g id="node9" class="node">
<title>6</title>
<polygon fill="none" stroke="black" points="900.5,-828 748.5,-828 748.5,-792 900.5,-792 900.5,-828"/>
<text text-anchor="middle" x="824.5" y="-806.3" font-family="Times,serif" font-size="14.00">valence_build_utils</text>
</g>
<!-- 13 -->
<g id="node13" class="node">
<title>13</title>
<polygon fill="none" stroke="black" points="861.5,-396 671.5,-396 671.5,-360 861.5,-360 861.5,-396"/>
<text text-anchor="middle" x="766.5" y="-374.3" font-family="Times,serif" font-size="14.00">valence_server_common</text>
</g>
<!-- 10&#45;&gt;13 -->
<g id="edge10" class="edge">
<title>10&#45;&gt;13</title>
<path fill="none" stroke="black" d="M712.3,-431.7C721.1,-423.14 731.88,-412.66 741.5,-403.3"/>
<polygon fill="black" stroke="black" points="744.18,-405.58 748.91,-396.1 739.3,-400.57 744.18,-405.58"/>
</g>
<!-- 14&#45;&gt;13 -->
<g id="edge14" class="edge">
<title>14&#45;&gt;13</title>
<path fill="none" stroke="black" d="M821.46,-431.7C812.44,-423.05 801.38,-412.45 791.56,-403.03"/>
<polygon fill="black" stroke="black" points="793.98,-400.5 784.34,-396.1 789.13,-405.55 793.98,-400.5"/>
</g>
<!-- 11 -->
<g id="node14" class="node">
<title>11</title>
<polygon fill="none" stroke="black" points="683.5,-324 547.5,-324 547.5,-288 683.5,-288 683.5,-324"/>
<text text-anchor="middle" x="615.5" y="-302.3" font-family="Times,serif" font-size="14.00">valence_protocol</text>
</g>
<!-- 13&#45;&gt;11 -->
<g id="edge13" class="edge">
<title>13&#45;&gt;11</title>
<path fill="none" stroke="black" d="M729.56,-359.88C709.01,-350.35 683.25,-338.41 661.41,-328.28"/>
<polygon fill="black" stroke="black" points="662.86,-325.1 652.32,-324.07 659.92,-331.45 662.86,-325.1"/>
</g>
<!-- 12 -->
<g id="node15" class="node">
<title>12</title>
<polygon fill="none" stroke="black" points="670.5,-252 560.5,-252 560.5,-216 670.5,-216 670.5,-252"/>
<text text-anchor="middle" x="615.5" y="-230.3" font-family="Times,serif" font-size="14.00">valence_item</text>
</g>
<!-- 11&#45;&gt;12 -->
<g id="edge11" class="edge">
<title>11&#45;&gt;12</title>
<path fill="none" stroke="black" d="M615.5,-287.7C615.5,-279.98 615.5,-270.71 615.5,-262.11"/>
<polygon fill="black" stroke="black" points="619,-262.1 615.5,-252.1 612,-262.1 619,-262.1"/>
</g>
<!-- 12&#45;&gt;2 -->
<g id="edge12" class="edge">
<title>12&#45;&gt;2</title>
<path fill="none" stroke="black" d="M615.5,-215.7C615.5,-207.98 615.5,-198.71 615.5,-190.11"/>
<polygon fill="black" stroke="black" points="619,-190.1 615.5,-180.1 612,-190.1 619,-190.1"/>
</g>
<!-- 15 -->
<g id="node16" class="node">
<title>15</title>
<polygon fill="none" stroke="black" points="303.5,-612 191.5,-612 191.5,-576 303.5,-576 303.5,-612"/>
<text text-anchor="middle" x="247.5" y="-590.3" font-family="Times,serif" font-size="14.00">valence_anvil</text>
</g>
<!-- 15&#45;&gt;9 -->
<g id="edge15" class="edge">
<title>15&#45;&gt;9</title>
<path fill="none" stroke="black" stroke-dasharray="1,5" d="M303.76,-577.77C306.71,-577.14 309.63,-576.54 312.5,-576 446.35,-550.81 604.8,-535.57 694.69,-528.27"/>
<polygon fill="black" stroke="black" points="695.08,-531.75 704.77,-527.46 694.52,-524.77 695.08,-531.75"/>
</g>
<!-- 16 -->
<g id="node17" class="node">
<title>16</title>
<polygon fill="none" stroke="black" points="461.5,-612 321.5,-612 321.5,-576 461.5,-576 461.5,-612"/>
<text text-anchor="middle" x="391.5" y="-590.3" font-family="Times,serif" font-size="14.00">valence_boss_bar</text>
</g>
<!-- 16&#45;&gt;9 -->
<g id="edge16" class="edge">
<title>16&#45;&gt;9</title>
<path fill="none" stroke="black" d="M461.69,-577.76C464.66,-577.16 467.61,-576.57 470.5,-576 546.88,-560.95 634.72,-545.45 694.74,-535.13"/>
<polygon fill="black" stroke="black" points="695.61,-538.53 704.87,-533.39 694.43,-531.63 695.61,-538.53"/>
</g>
<!-- 17 -->
<g id="node18" class="node">
<title>17</title>
<polygon fill="none" stroke="black" points="625.5,-612 479.5,-612 479.5,-576 625.5,-576 625.5,-612"/>
<text text-anchor="middle" x="552.5" y="-590.3" font-family="Times,serif" font-size="14.00">valence_command</text>
</g>
<!-- 17&#45;&gt;9 -->
<g id="edge17" class="edge">
<title>17&#45;&gt;9</title>
<path fill="none" stroke="black" d="M604.58,-575.97C634.74,-566.1 672.89,-553.62 704.58,-543.25"/>
<polygon fill="black" stroke="black" points="705.77,-546.55 714.19,-540.11 703.6,-539.89 705.77,-546.55"/>
</g>
<!-- 18 -->
<g id="node19" class="node">
<title>18</title>
<polygon fill="none" stroke="black" points="611.5,-684 457.5,-684 457.5,-648 611.5,-648 611.5,-684"/>
<text text-anchor="middle" x="534.5" y="-662.3" font-family="Times,serif" font-size="14.00">valence_equipment</text>
</g>
<!-- 19 -->
<g id="node20" class="node">
<title>19</title>
<polygon fill="none" stroke="black" points="789.5,-612 643.5,-612 643.5,-576 789.5,-576 789.5,-612"/>
<text text-anchor="middle" x="716.5" y="-590.3" font-family="Times,serif" font-size="14.00">valence_inventory</text>
</g>
<!-- 18&#45;&gt;19 -->
<g id="edge18" class="edge">
<title>18&#45;&gt;19</title>
<path fill="none" stroke="black" d="M579.02,-647.88C604.23,-638.18 635.95,-625.98 662.57,-615.74"/>
<polygon fill="black" stroke="black" points="664.05,-618.92 672.12,-612.07 661.53,-612.39 664.05,-618.92"/>
</g>
<!-- 19&#45;&gt;9 -->
<g id="edge19" class="edge">
<title>19&#45;&gt;9</title>
<path fill="none" stroke="black" d="M728.86,-575.7C734.73,-567.47 741.87,-557.48 748.34,-548.42"/>
<polygon fill="black" stroke="black" points="751.32,-550.28 754.28,-540.1 745.62,-546.21 751.32,-550.28"/>
</g>
<!-- 20 -->
<g id="node21" class="node">
<title>20</title>
<polygon fill="none" stroke="black" points="953.5,-612 845.5,-612 845.5,-576 953.5,-576 953.5,-612"/>
<text text-anchor="middle" x="899.5" y="-590.3" font-family="Times,serif" font-size="14.00">valence_lang</text>
</g>
<!-- 21 -->
<g id="node22" class="node">
<title>21</title>
<polygon fill="none" stroke="black" points="765.5,-684 629.5,-684 629.5,-648 765.5,-648 765.5,-684"/>
<text text-anchor="middle" x="697.5" y="-662.3" font-family="Times,serif" font-size="14.00">valence_network</text>
</g>
<!-- 21&#45;&gt;9 -->
<g id="edge20" class="edge">
<title>21&#45;&gt;9</title>
<path fill="none" stroke="black" d="M754.75,-647.96C771.83,-639.91 788.61,-628.35 798.5,-612 810.53,-592.11 799.46,-567 787.17,-548.52"/>
<polygon fill="black" stroke="black" points="789.97,-546.42 781.33,-540.29 784.26,-550.47 789.97,-546.42"/>
</g>
<!-- 21&#45;&gt;20 -->
<g id="edge21" class="edge">
<title>21&#45;&gt;20</title>
<path fill="none" stroke="black" d="M746.66,-647.97C775,-638.14 810.82,-625.73 840.66,-615.39"/>
<polygon fill="black" stroke="black" points="841.82,-618.69 850.12,-612.11 839.53,-612.08 841.82,-618.69"/>
</g>
<!-- 22 -->
<g id="node23" class="node">
<title>22</title>
<polygon fill="none" stroke="black" points="935.5,-684 783.5,-684 783.5,-648 935.5,-648 935.5,-684"/>
<text text-anchor="middle" x="859.5" y="-662.3" font-family="Times,serif" font-size="14.00">valence_player_list</text>
</g>
<!-- 22&#45;&gt;9 -->
<g id="edge22" class="edge">
<title>22&#45;&gt;9</title>
<path fill="none" stroke="black" d="M918.4,-647.96C935.62,-639.93 952.5,-628.4 962.5,-612 970.83,-598.34 972.23,-588.7 962.5,-576 947.17,-555.97 887.7,-541.77 838.25,-533.14"/>
<polygon fill="black" stroke="black" points="838.64,-529.66 828.19,-531.44 837.47,-536.56 838.64,-529.66"/>
</g>
<!-- 23 -->
<g id="node24" class="node">
<title>23</title>
<polygon fill="none" stroke="black" points="1111,-684 954,-684 954,-648 1111,-648 1111,-684"/>
<text text-anchor="middle" x="1032.5" y="-662.3" font-family="Times,serif" font-size="14.00">valence_scoreboard</text>
</g>
<!-- 23&#45;&gt;9 -->
<g id="edge23" class="edge">
<title>23&#45;&gt;9</title>
<path fill="none" stroke="black" d="M1027.08,-647.79C1019.8,-627.49 1004.86,-594.23 980.5,-576 939.56,-545.37 883.07,-532.27 838.41,-526.75"/>
<polygon fill="black" stroke="black" points="838.53,-523.24 828.2,-525.6 837.74,-530.2 838.53,-523.24"/>
</g>
<!-- 24 -->
<g id="node25" class="node">
<title>24</title>
<polygon fill="none" stroke="black" points="1044,-828 919,-828 919,-792 1044,-792 1044,-828"/>
<text text-anchor="middle" x="981.5" y="-806.3" font-family="Times,serif" font-size="14.00">valence_spatial</text>
</g>
<!-- 25 -->
<g id="node26" class="node">
<title>25</title>
<polygon fill="none" stroke="black" points="1265.5,-684 1129.5,-684 1129.5,-648 1265.5,-648 1265.5,-684"/>
<text text-anchor="middle" x="1197.5" y="-662.3" font-family="Times,serif" font-size="14.00">valence_weather</text>
</g>
<!-- 25&#45;&gt;9 -->
<g id="edge24" class="edge">
<title>25&#45;&gt;9</title>
<path fill="none" stroke="black" d="M1167.13,-647.97C1130.69,-628.17 1067.27,-595.69 1009.5,-576 953.2,-556.81 887.12,-542.93 838.1,-534.2"/>
<polygon fill="black" stroke="black" points="838.67,-530.74 828.22,-532.46 837.46,-537.64 838.67,-530.74"/>
</g>
<!-- 26 -->
<g id="node27" class="node">
<title>26</title>
<polygon fill="none" stroke="black" points="1457,-684 1284,-684 1284,-648 1457,-648 1457,-684"/>
<text text-anchor="middle" x="1370.5" y="-662.3" font-family="Times,serif" font-size="14.00">valence_world_border</text>
</g>
<!-- 26&#45;&gt;9 -->
<g id="edge25" class="edge">
<title>26&#45;&gt;9</title>
<path fill="none" stroke="black" d="M1318.78,-647.97C1258.66,-628.61 1156.19,-596.98 1066.5,-576 989.06,-557.88 899.08,-542.76 838.02,-533.37"/>
<polygon fill="black" stroke="black" points="838.51,-529.9 828.09,-531.85 837.45,-536.82 838.51,-529.9"/>
</g>
<!-- 27 -->
<g id="node28" class="node">
<title>27</title>
<polygon fill="none" stroke="black" points="614,-828 487,-828 487,-792 614,-792 614,-828"/>
<text text-anchor="middle" x="550.5" y="-806.3" font-family="Times,serif" font-size="14.00">dump_schedule</text>
</g>
<!-- 28 -->
<g id="node29" class="node">
<title>28</title>
<polygon fill="none" stroke="black" points="651,-756 580,-756 580,-720 651,-720 651,-756"/>
<text text-anchor="middle" x="615.5" y="-734.3" font-family="Times,serif" font-size="14.00">valence</text>
</g>
<!-- 27&#45;&gt;28 -->
<g id="edge26" class="edge">
<title>27&#45;&gt;28</title>
<path fill="none" stroke="black" d="M566.57,-791.7C574.44,-783.22 584.06,-772.86 592.67,-763.58"/>
<polygon fill="black" stroke="black" points="595.38,-765.81 599.62,-756.1 590.25,-761.05 595.38,-765.81"/>
</g>
<!-- 28&#45;&gt;1 -->
<g id="edge27" class="edge">
<title>28&#45;&gt;1</title>
<path fill="none" stroke="black" stroke-dasharray="1,5" d="M579.79,-732.21C525.7,-724.53 420.03,-707.86 332.5,-684 263.28,-665.13 185.82,-635.66 136.64,-615.86"/>
<polygon fill="black" stroke="black" points="137.78,-612.54 127.19,-612.03 135.15,-619.03 137.78,-612.54"/>
</g>
<!-- 28&#45;&gt;15 -->
<g id="edge28" class="edge">
<title>28&#45;&gt;15</title>
<path fill="none" stroke="black" stroke-dasharray="1,5" d="M579.85,-730.74C537.9,-722.72 466.6,-707.06 408.5,-684 362.78,-665.85 313.8,-637.33 282.03,-617.48"/>
<polygon fill="black" stroke="black" points="283.86,-614.5 273.54,-612.13 280.13,-620.42 283.86,-614.5"/>
</g>
<!-- 28&#45;&gt;16 -->
<g id="edge29" class="edge">
<title>28&#45;&gt;16</title>
<path fill="none" stroke="black" stroke-dasharray="1,5" d="M579.8,-734.41C541.1,-729.91 479.39,-717.61 438.5,-684 419.07,-668.03 406.63,-641.89 399.47,-622.06"/>
<polygon fill="black" stroke="black" points="402.7,-620.71 396.19,-612.35 396.07,-622.95 402.7,-620.71"/>
</g>
<!-- 28&#45;&gt;17 -->
<g id="edge30" class="edge">
<title>28&#45;&gt;17</title>
<path fill="none" stroke="black" stroke-dasharray="1,5" d="M579.86,-737.1C540.43,-735.06 478.5,-724.99 448.5,-684 439.05,-671.09 440.14,-661.64 448.5,-648 456.75,-634.53 469.62,-624.36 483.52,-616.71"/>
<polygon fill="black" stroke="black" points="485.42,-619.67 492.77,-612.04 482.27,-613.42 485.42,-619.67"/>
</g>
<!-- 28&#45;&gt;18 -->
<g id="edge31" class="edge">
<title>28&#45;&gt;18</title>
<path fill="none" stroke="black" stroke-dasharray="1,5" d="M595.48,-719.7C585.37,-710.97 572.96,-700.24 561.98,-690.75"/>
<polygon fill="black" stroke="black" points="564.15,-687.99 554.29,-684.1 559.57,-693.29 564.15,-687.99"/>
</g>
<!-- 28&#45;&gt;21 -->
<g id="edge32" class="edge">
<title>28&#45;&gt;21</title>
<path fill="none" stroke="black" stroke-dasharray="1,5" d="M635.77,-719.7C646,-710.97 658.56,-700.24 669.68,-690.75"/>
<polygon fill="black" stroke="black" points="672.13,-693.26 677.46,-684.1 667.59,-687.94 672.13,-693.26"/>
</g>
<!-- 28&#45;&gt;22 -->
<g id="edge33" class="edge">
<title>28&#45;&gt;22</title>
<path fill="none" stroke="black" stroke-dasharray="1,5" d="M651.24,-726.75C687.62,-716.31 744.95,-699.86 790.26,-686.86"/>
<polygon fill="black" stroke="black" points="791.38,-690.18 800.02,-684.06 789.45,-683.46 791.38,-690.18"/>
</g>
<!-- 28&#45;&gt;23 -->
<g id="edge34" class="edge">
<title>28&#45;&gt;23</title>
<path fill="none" stroke="black" stroke-dasharray="1,5" d="M651.1,-731.64C709.81,-722.71 830.86,-703.97 943.97,-684.06"/>
<polygon fill="black" stroke="black" points="944.6,-687.51 953.84,-682.32 943.38,-680.61 944.6,-687.51"/>
</g>
<!-- 28&#45;&gt;25 -->
<g id="edge35" class="edge">
<title>28&#45;&gt;25</title>
<path fill="none" stroke="black" stroke-dasharray="1,5" d="M651.12,-734.61C732.28,-728.86 937.32,-712.72 1119.09,-683.95"/>
<polygon fill="black" stroke="black" points="1119.77,-687.39 1129.1,-682.35 1118.67,-680.48 1119.77,-687.39"/>
</g>
<!-- 28&#45;&gt;26 -->
<g id="edge36" class="edge">
<title>28&#45;&gt;26</title>
<path fill="none" stroke="black" stroke-dasharray="1,5" d="M651.34,-735.32C749.3,-730.46 1029.89,-714.85 1273.83,-684.01"/>
<polygon fill="black" stroke="black" points="1274.47,-687.45 1283.95,-682.72 1273.59,-680.51 1274.47,-687.45"/>
</g>
<!-- 29 -->
<g id="node30" class="node">
<title>29</title>
<polygon fill="none" stroke="black" points="560,-396 423,-396 423,-360 560,-360 560,-396"/>
<text text-anchor="middle" x="491.5" y="-374.3" font-family="Times,serif" font-size="14.00">packet_inspector</text>
</g>
<!-- 29&#45;&gt;11 -->
<g id="edge37" class="edge">
<title>29&#45;&gt;11</title>
<path fill="none" stroke="black" d="M521.83,-359.88C538.2,-350.64 558.58,-339.13 576.15,-329.21"/>
<polygon fill="black" stroke="black" points="578.06,-332.15 585.05,-324.19 574.62,-326.06 578.06,-332.15"/>
</g>
<!-- 30 -->
<g id="node31" class="node">
<title>30</title>
<polygon fill="none" stroke="black" points="730.5,-828 632.5,-828 632.5,-792 730.5,-792 730.5,-828"/>
<text text-anchor="middle" x="681.5" y="-806.3" font-family="Times,serif" font-size="14.00">playground</text>
</g>
<!-- 30&#45;&gt;28 -->
<g id="edge38" class="edge">
<title>30&#45;&gt;28</title>
<path fill="none" stroke="black" d="M665.19,-791.7C657.19,-783.22 647.43,-772.86 638.68,-763.58"/>
<polygon fill="black" stroke="black" points="641.03,-760.98 631.63,-756.1 635.94,-765.78 641.03,-760.98"/>
</g>
<!-- 31 -->
<g id="node32" class="node">
<title>31</title>
<polygon fill="none" stroke="black" points="653,-396 578,-396 578,-360 653,-360 653,-396"/>
<text text-anchor="middle" x="615.5" y="-374.3" font-family="Times,serif" font-size="14.00">stresser</text>
</g>
<!-- 31&#45;&gt;11 -->
<g id="edge39" class="edge">
<title>31&#45;&gt;11</title>
<path fill="none" stroke="black" d="M615.5,-359.7C615.5,-351.98 615.5,-342.71 615.5,-334.11"/>
<polygon fill="black" stroke="black" points="619,-334.1 615.5,-324.1 612,-334.1 619,-334.1"/>
</g>
</g>
</svg>
